<?xml version="1.0" encoding="UTF-8" standalone="no"?>
<svg
   xmlns:dc="http://purl.org/dc/elements/1.1/"
   xmlns:cc="http://creativecommons.org/ns#"
   xmlns:rdf="http://www.w3.org/1999/02/22-rdf-syntax-ns#"
   xmlns:svg="http://www.w3.org/2000/svg"
   xmlns="http://www.w3.org/2000/svg"
   xmlns:sodipodi="http://sodipodi.sourceforge.net/DTD/sodipodi-0.dtd"
   xmlns:inkscape="http://www.inkscape.org/namespaces/inkscape"
   version="1.1"
   viewBox="0 0 200 200"
   id="svg73"
   sodipodi:docname="favicon.svg"
   inkscape:export-filename="/media/data/workspace/dotnet/Actrack/wwwroot/images/icons/icon-512x512.png"
   inkscape:export-xdpi="245.75999"
   inkscape:export-ydpi="245.75999"
   inkscape:version="0.92.4 (5da689c313, 2019-01-14)">
  <metadata
     id="metadata77">
    <rdf:RDF>
      <cc:Work
         rdf:about="">
        <dc:format>image/svg+xml</dc:format>
        <dc:type
           rdf:resource="http://purl.org/dc/dcmitype/StillImage" />
      </cc:Work>
    </rdf:RDF>
  </metadata>
  <sodipodi:namedview
     pagecolor="#ffffff"
     bordercolor="#666666"
     borderopacity="1"
     objecttolerance="10"
     gridtolerance="10"
     guidetolerance="10"
     inkscape:pageopacity="0"
     inkscape:pageshadow="2"
     inkscape:window-width="1864"
     inkscape:window-height="1051"
     id="namedview75"
     showgrid="false"
     inkscape:zoom="1.18"
     inkscape:cx="100.84746"
     inkscape:cy="100"
     inkscape:window-x="56"
     inkscape:window-y="0"
     inkscape:window-maximized="1"
     inkscape:current-layer="svg73" />
  <defs
     id="defs7">
    <linearGradient
       id="a"
       x1="169.95"
       x2="198.86"
       y1="353.19"
       y2="382.88"
       gradientTransform="matrix(2.9136 0 0 2.9136 -437.29 -131.78)"
       gradientUnits="userSpaceOnUse">
      <stop
         stop-color="#bfbfbf"
         offset="0"
         id="stop2" />
      <stop
         stop-color="#fff"
         stop-opacity="0"
         offset="1"
         id="stop4" />
    </linearGradient>
  </defs>
  <g
     transform="translate(0 -852.36)"
     id="g71">
    <path
       d="m140.24 899.01-80.671 106.44 34.053 34.053c2.1051 0.1503 4.2289 0.273 6.3736 0.273 48.425 0 87.409-38.984 87.409-87.409 0-0.15121 7.6e-4 -0.30417 0-0.45525-15.826-18.156-40.011-45.747-47.164-52.901z"
       fill="url(#a)"
       id="path9" />
    <rect
       x="12.591"
       y="864.95"
       width="174.82"
       height="174.82"
       ry="87.409"
       fill="none"
       stroke="#000"
       stroke-dasharray="34.96357949, 11.6545265"
       stroke-dashoffset="19.355"
       stroke-linecap="round"
       stroke-width="5.8273"
       id="rect11" />
    <rect
       x="57.886"
       y="897.28"
       width="84.229"
       height="110.16"
       ry="6.1857"
       fill="#ddd"
       opacity=".96"
       id="rect13" />
    <g
       transform="matrix(2.9136 0 0 2.9136 -857.61 -129.38)"
       fill="#959595"
       id="g67">
      <rect
         x="321.49"
         y="354.25"
         width="18.407"
         height="2.0326"
         ry="0"
         opacity=".96"
         id="rect15" />
      <circle
         transform="matrix(.66666 0 0 .66666 103.7 112.67)"
         cx="322.11"
         cy="363.91"
         r="1.5245"
         opacity=".96"
         id="circle17" />
      <g
         transform="translate(-2.2206e-6 4)"
         id="g23">
        <rect
           x="321.49"
           y="354.25"
           width="18.407"
           height="2.0326"
           ry="0"
           opacity=".96"
           id="rect19" />
        <circle
           transform="matrix(.66666 0 0 .66666 103.7 112.67)"
           cx="322.11"
           cy="363.91"
           r="1.5245"
           opacity=".96"
           id="circle21" />
      </g>
      <g
         transform="translate(-2.2206e-6 8)"
         id="g29">
        <rect
           x="321.49"
           y="354.25"
           width="18.407"
           height="2.0326"
           ry="0"
           opacity=".96"
           id="rect25" />
        <circle
           transform="matrix(.66666 0 0 .66666 103.7 112.67)"
           cx="322.11"
           cy="363.91"
           r="1.5245"
           opacity=".96"
           id="circle27" />
      </g>
      <g
         transform="translate(-2.2206e-6 12)"
         id="g35">
        <rect
           x="321.49"
           y="354.25"
           width="18.407"
           height="2.0326"
           ry="0"
           opacity=".96"
           id="rect31" />
        <circle
           transform="matrix(.66666 0 0 .66666 103.7 112.67)"
           cx="322.11"
           cy="363.91"
           r="1.5245"
           opacity=".96"
           id="circle33" />
      </g>
      <g
         transform="translate(-2.2206e-6 16)"
         id="g41">
        <rect
           x="321.49"
           y="354.25"
           width="18.407"
           height="2.0326"
           ry="0"
           opacity=".96"
           id="rect37" />
        <circle
           transform="matrix(.66666 0 0 .66666 103.7 112.67)"
           cx="322.11"
           cy="363.91"
           r="1.5245"
           opacity=".96"
           id="circle39" />
      </g>
      <g
         transform="translate(-2.2206e-6 20)"
         id="g47">
        <rect
           x="321.49"
           y="354.25"
           width="18.407"
           height="2.0326"
           ry="0"
           opacity=".96"
           id="rect43" />
        <circle
           transform="matrix(.66666 0 0 .66666 103.7 112.67)"
           cx="322.11"
           cy="363.91"
           r="1.5245"
           opacity=".96"
           id="circle45" />
      </g>
      <g
         transform="translate(-2.2206e-6 24)"
         id="g53">
        <rect
           x="321.49"
           y="354.25"
           width="18.407"
           height="2.0326"
           ry="0"
           opacity=".96"
           id="rect49" />
        <circle
           transform="matrix(.66666 0 0 .66666 103.7 112.67)"
           cx="322.11"
           cy="363.91"
           r="1.5245"
           opacity=".96"
           id="circle51" />
      </g>
      <g
         transform="translate(-2.2206e-6 28)"
         id="g59">
        <rect
           x="321.49"
           y="354.25"
           width="18.407"
           height="2.0326"
           ry="0"
           opacity=".96"
           id="rect55" />
        <circle
           transform="matrix(.66666 0 0 .66666 103.7 112.67)"
           cx="322.11"
           cy="363.91"
           r="1.5245"
           opacity=".96"
           id="circle57" />
      </g>
      <g
         transform="translate(-2.2206e-6 32)"
         id="g65">
        <rect
           x="321.49"
           y="354.25"
           width="18.407"
           height="2.0326"
           ry="0"
           opacity=".96"
           id="rect61" />
        <circle
           transform="matrix(.66666 0 0 .66666 103.7 112.67)"
           cx="322.11"
           cy="363.91"
           r="1.5245"
           opacity=".96"
           id="circle63" />
      </g>
    </g>
    <rect
       y="852.36"
       width="200"
       height="200"
       fill-opacity="0"
       id="rect69" />
  </g>
</svg>
